HIERARCHY
ROOT joint_Root
{
	OFFSET 0.0 0.0 0.0
	CHANNELS 6 Xposition Yposition Zposition Zrotation Xrotation Yrotation 
	JOINT Hips
	{
		OFFSET -17.1583 93.1646 452.98
		CHANNELS 6 Xposition Yposition Zposition Zrotation Xrotation Yrotation 
		JOINT Spine
		{
			OFFSET 15.7357 0.0 0.0
			CHANNELS 6 Xposition Yposition Zposition Zrotation Xrotation Yrotation 
			JOINT Chest
			{
				OFFSET 8.98455 -0.406207 0.0
				CHANNELS 6 Xposition Yposition Zposition Zrotation Xrotation Yrotation 
				JOINT Neck
				{
					OFFSET 16.3773 0.0 0.0
					CHANNELS 6 Xposition Yposition Zposition Zrotation Xrotation Yrotation 
					JOINT Head
					{
						OFFSET 6.45672 0.0 0.0
						CHANNELS 6 Xposition Yposition Zposition Zrotation Xrotation Yrotation 
						End Site
						{
							OFFSET 0.0 0.0 0.0
						}
					}
				}
				JOINT Shoulder_L
				{
					OFFSET 12.9942 -0.242716 4.98039
					CHANNELS 6 Xposition Yposition Zposition Zrotation Xrotation Yrotation 
					JOINT UpperArm_L
					{
						OFFSET 5.34809 0.0 0.0
						CHANNELS 6 Xposition Yposition Zposition Zrotation Xrotation Yrotation 
						JOINT LowerArm_L
						{
							OFFSET 24.3286 1.87007e-05 0.0
							CHANNELS 6 Xposition Yposition Zposition Zrotation Xrotation Yrotation 
							JOINT Hand_L
							{
								OFFSET 22.2916 0.0 0.0
								CHANNELS 6 Xposition Yposition Zposition Zrotation Xrotation Yrotation 
								End Site
								{
									OFFSET 0.0 0.0 0.0
								}
							}
						}
					}
				}
				JOINT Shoulder_R
				{
					OFFSET 12.9945 -0.242716 -4.98039
					CHANNELS 6 Xposition Yposition Zposition Zrotation Xrotation Yrotation 
					JOINT UpperArm_R
					{
						OFFSET -5.34813 0.0 0.0
						CHANNELS 6 Xposition Yposition Zposition Zrotation Xrotation Yrotation 
						JOINT LowerArm_R
						{
							OFFSET -24.3289 0.000322201 0.0
							CHANNELS 6 Xposition Yposition Zposition Zrotation Xrotation Yrotation 
							JOINT Hand_R
							{
								OFFSET -22.2915 -0.000108084 0.0
								CHANNELS 6 Xposition Yposition Zposition Zrotation Xrotation Yrotation 
								End Site
								{
									OFFSET 0.0 0.0 0.0
								}
							}
						}
					}
				}
			}
		}
		JOINT UpperLeg_L
		{
			OFFSET -2.19248 -6.46944 0.0
			CHANNELS 6 Xposition Yposition Zposition Zrotation Xrotation Yrotation 
			JOINT LowerLeg_L
			{
				OFFSET 39.0811 0.0 -1.23785e-05
				CHANNELS 6 Xposition Yposition Zposition Zrotation Xrotation Yrotation 
				JOINT Foot_L
				{
					OFFSET 40.9854 0.0 -1.26872e-05
					CHANNELS 6 Xposition Yposition Zposition Zrotation Xrotation Yrotation 
					JOINT Toes_L
					{
						OFFSET 11.7543 0.0 0.0
						CHANNELS 6 Xposition Yposition Zposition Zrotation Xrotation Yrotation 
						End Site
						{
							OFFSET 0.0 0.0 0.0
						}
					}
				}
			}
		}
		JOINT UpperLeg_R
		{
			OFFSET -2.19251 6.46944 0.0
			CHANNELS 6 Xposition Yposition Zposition Zrotation Xrotation Yrotation 
			JOINT LowerLeg_R
			{
				OFFSET -39.0811 -0.00228153 -0.0401928
				CHANNELS 6 Xposition Yposition Zposition Zrotation Xrotation Yrotation 
				JOINT Foot_R
				{
					OFFSET -40.9854 0.0 0.0
					CHANNELS 6 Xposition Yposition Zposition Zrotation Xrotation Yrotation 
					JOINT Toes_R
					{
						OFFSET -11.7543 0.0 0.0
						CHANNELS 6 Xposition Yposition Zposition Zrotation Xrotation Yrotation 
						End Site
						{
							OFFSET 0.0 0.0 0.0
						}
					}
				}
			}
		}
	}
}
MOTION
Frames:	4
Frame Time:	0.0333333
0.000000 0.000000 0.000000 0.000000 0.000000 -0.000000 -0.736073 93.086500 1.596970 88.601300 -2.643820 0.102699 15.735700 0.000005 -0.000001 84.450300 87.959100 -76.489800 8.984550 -0.406207 -0.000000 -3.571770 -1.179630 15.890200 16.377300 -0.000001 -0.000001 4.181660 2.425270 4.829560 6.456720 -0.000001 -0.000000 3.858340 1.103310 22.535800 12.994200 -0.242716 4.980390 -85.068300 -9.285970 -61.864300 5.348090 -0.000007 -0.000001 -39.439000 -59.605600 -85.616500 24.328600 0.000019 0.000005 1.452400 24.377100 -3.515120 22.291600 -0.000001 0.000005 45.514600 4.618870 14.588800 12.994500 -0.242716 -4.980390 89.513900 1.599710 -73.094900 -5.348130 -0.000001 -0.000004 -63.585500 6.373170 -4.998040 -24.328900 0.000322 -0.000009 2.319230 8.184290 -15.887700 -22.291500 -0.000108 -0.000004 6.988580 5.207270 2.536470 -2.192480 -6.469440 -0.000000 -174.037000 -10.150700 1.483970 39.081100 -0.000007 -0.000012 0.029884 -0.131951 12.761200 40.985400 -0.000006 -0.000013 -0.731096 13.187200 -69.203500 11.754300 -0.000000 0.000003 -0.000195 0.170849 -9.647080 -2.192510 6.469440 -0.000001 176.938000 3.449240 -178.609000 -39.081100 -0.002282 -0.040193 0.017583 -0.072163 11.167400 -40.985400 0.000008 0.000006 -5.584420 6.182280 -67.824100 -11.754300 -0.000006 -0.000006 -0.010955 0.278309 -5.264430
0.000000 0.000000 0.000000 0.000000 0.000000 -0.000000 -0.721193 93.088100 1.614370 88.596200 -2.593630 0.163678 15.735700 0.000005 -0.000001 84.727900 87.936900 -76.814600 8.984550 -0.406207 -0.000000 -3.528390 -1.156410 15.796600 16.377300 -0.000001 -0.000001 4.231150 2.410510 4.867730 6.456720 -0.000001 -0.000000 3.820180 1.043440 22.558300 12.994200 -0.242716 4.980390 -85.080300 -9.256760 -61.848500 5.348090 -0.000007 -0.000001 -39.513400 -59.643700 -85.591000 24.328600 0.000019 0.000005 1.492710 24.405500 -3.608550 22.291600 -0.000001 0.000005 45.473200 4.624800 14.485900 12.994500 -0.242716 -4.980390 89.504700 1.630530 -73.101800 -5.348130 -0.000001 -0.000004 -63.577200 6.381890 -4.922830 -24.328900 0.000322 -0.000009 2.323950 8.102080 -16.070600 -22.291500 -0.000108 -0.000004 6.960760 5.208850 2.496390 -2.192480 -6.469440 -0.000000 -174.026000 -10.083600 1.564300 39.081100 -0.000007 -0.000012 0.030326 -0.134165 12.737000 40.985400 -0.000006 -0.000013 -0.720279 13.220900 -69.231000 11.754300 -0.000000 0.000003 -0.000247 0.171692 -9.612870 -2.192510 6.469440 -0.000001 176.916000 3.498910 -178.521000 -39.081100 -0.002282 -0.040193 0.016504 -0.066847 11.143600 -40.985400 0.000008 0.000006 -5.723460 6.237620 -67.819600 -11.754300 -0.000006 -0.000006 -0.011239 0.280341 -5.181260
0.000000 0.000000 0.000000 0.000000 0.000000 -0.000000 -0.702481 93.082100 1.611400 88.595200 -2.567230 0.160815 15.735700 0.000005 -0.000001 85.854400 87.946500 -77.995700 8.984550 -0.406207 -0.000000 -3.547900 -1.070220 15.689800 16.377300 -0.000001 -0.000001 4.218020 2.357410 4.902380 6.456720 -0.000001 -0.000000 3.941640 0.968174 22.550800 12.994200 -0.242716 4.980390 -85.069000 -9.246880 -61.768200 5.348090 -0.000007 -0.000001 -39.528600 -59.559400 -85.591900 24.328600 0.000019 0.000005 1.499500 24.332200 -3.635140 22.291600 -0.000001 0.000005 45.380700 4.616540 14.629300 12.994500 -0.242716 -4.980390 89.505900 1.623100 -73.068200 -5.348130 -0.000001 -0.000004 -63.668200 6.415780 -4.814330 -24.328900 0.000322 -0.000009 2.352490 8.140050 -16.186300 -22.291500 -0.000108 -0.000004 6.963330 5.211420 2.431480 -2.192480 -6.469440 -0.000000 -174.066000 -9.993620 1.481580 39.081100 -0.000007 -0.000012 0.030847 -0.135060 12.865400 40.985400 -0.000006 -0.000013 -0.701791 13.080400 -69.280100 11.754300 -0.000000 0.000003 -0.000339 0.173153 -9.553510 -2.192510 6.469440 -0.000001 176.900000 3.582760 -178.510000 -39.081100 -0.002282 -0.040193 0.016832 -0.068596 11.129700 -40.985400 0.000008 0.000006 -5.616810 6.280660 -67.790000 -11.754300 -0.000006 -0.000006 -0.010796 0.277158 -5.311540
0.000000 0.000000 0.000000 0.000000 0.000000 -0.000000 -0.695447 93.078000 1.635170 88.571200 -2.526600 0.212728 15.735700 0.000005 -0.000001 85.936200 87.931500 -78.119300 8.984550 -0.406207 -0.000000 -3.519190 -1.060430 15.606500 16.377300 -0.000001 -0.000001 4.247820 2.338730 4.925880 6.456720 -0.000001 -0.000000 3.985990 0.982878 22.481300 12.994200 -0.242716 4.980390 -85.101600 -9.180200 -61.756200 5.348090 -0.000007 -0.000001 -39.453400 -59.610700 -85.460900 24.328600 0.000019 0.000005 1.528430 24.421900 -3.692390 22.291600 -0.000001 0.000005 45.423300 4.623290 14.512100 12.994500 -0.242716 -4.980390 89.499400 1.649430 -73.115900 -5.348130 -0.000001 -0.000004 -63.739200 6.489450 -4.685090 -24.328900 0.000322 -0.000009 2.374370 8.163800 -16.284300 -22.291500 -0.000108 -0.000004 6.771280 5.208040 2.516780 -2.192480 -6.469440 -0.000000 -174.020000 -10.038100 1.536770 39.081100 -0.000007 -0.000012 0.031143 -0.135997 12.898300 40.985400 -0.000006 -0.000013 -0.680111 13.186300 -69.301900 11.754300 -0.000000 0.000003 -0.000224 0.171321 -9.627940 -2.192510 6.469440 -0.000001 176.909000 3.587330 -178.439000 -39.081100 -0.002282 -0.040193 0.016065 -0.064616 11.143900 -40.985400 0.000008 0.000006 -5.757280 6.252050 -67.828600 -11.754300 -0.000006 -0.000006 -0.011279 0.280629 -5.169460
